# xmcd CD database file
#
# Track frame offsets:
#	150
#	15903
#	31683
#	46630
#	58891
#	80740
#	101451
#	117105
#	141401
#	157660
#	174039
#	186919
#	203548
#
# Disc length: 2846 seconds
#
# Revision: 1
# Processed by: cddbd v1.5.2PL0 Copyright (c) Steve Scherf et al.
# Submitted via: CDex 1.51
#
DISCID=920b1c0d
DTITLE=Delta Maid - Outside Looking In
DYEAR=2011
DGENRE=Country
TTITLE0=Broken Branches 
TTITLE1=Spend A Little Time
TTITLE2=Running On Empty
TTITLE3=All I Dreamed
TTITLE4=Outside Looking In
TTITLE5=Of My Own
TTITLE6=Picking Up The Pieces
TTITLE7=When Love Grows Cold
TTITLE8=Dance With My Broken Heart
TTITLE9=Any Way I Want To
TTITLE10=Back The Last Horse
TTITLE11=Footprints
TTITLE12=The Changes Made
EXTD=YEAR: 2011
EXTT0=
EXTT1=
EXTT2=
EXTT3=
EXTT4=
EXTT5=
EXTT6=
EXTT7=
EXTT8=
EXTT9=
EXTT10=
EXTT11=
EXTT12=
PLAYORDER=
